# xmcd
#
# Track frame offsets:
#	150
#	14348
#	25877
#	42211
#	55084
#	72171
#	89829
#	99905
#	115775
#	132215
#	147175
#	164190
#	177372
#	189424
#
# Disc length: 2762 seconds
#
# Revision: 0
# Processed by: cddbd v1.5.1PL2 Copyright (c) Steve Scherf et al.
# Submitted via: dBpowerAMP V4.0
#
DISCID=c00ac80e
DTITLE=The Gentleman Callers - Hand-Me-Down Songs
DYEAR=2006
DGENRE=Country
TTITLE0=Already Left Town
TTITLE1=It's Gone
TTITLE2=Hand ME Down Songs
TTITLE3=Something Like You
TTITLE4=Looking Back
TTITLE5=Dead Man Now
TTITLE6=The Unofficial NRA Rally Song
TTITLE7=When You Wrote
TTITLE8=Broken Man
TTITLE9=Worst Imitation of You
TTITLE10=Tree Line
TTITLE11=Waiting Here for You
TTITLE12=Always There
TTITLE13=Wish I Was Empty
EXTD=From Lansing, MI, the Gentleman Callers are a country-rock band with whom I've shared the stage and studio with. Great musicians and great people. My name is Mike Vasas.
EXTT0=
EXTT1=
EXTT2=
EXTT3=
EXTT4=
EXTT5=
EXTT6=
EXTT7=
EXTT8=
EXTT9=
EXTT10=
EXTT11=
EXTT12=
EXTT13=
PLAYORDER=
